Patient4_TMGait_0pt6_02_right_23_EMG.mot
version=1
nRows=16
nColumns=33
inDegrees=no
endheader
time	1LAddLong	2LGlutMax	3LGlutMed	4LIliopsoas	5LSemiMemb	6LBicFemLong	7LRecFem	8LVastMed	9LVastLat	10LGasMed	11LTibAnt	12lTibPost	13LPeroneusLong	14LSol	15LExtDigLong	16LFlexDigLong	17RAddLong	18RGlutMax	19RGlutMed	20RIliopsoas	21RSemiMemb	22RBicFemLong	23RRecFem	24RVastMed	25RVastLat	26RGasMed	27RTibAnt	28RTibPost	29RPeroneusLong	30RSol	31RExtDigLong	32RFlexDigLong
28.415	-0.04837	0.18509	0.021057	0.01297	-0.074921	-0.4953	0.10376	0.01709	0.04425	-0.049438	-0.00351	-0.022736	0.14145	0.17075	0.26154	0.005341	0.067444	-0.18829	-0.071106	-0.10757	-0.17242	0.10346	-0.33417	-0.10757	-0.022888	-0.003662	-1.1949	-0.008392	0.21011	0.18356	0.001984	-0.018616
28.416	-0.055084	0.17288	0.069885	-0.003967	-0.04837	-0.392	0.028687	0.021057	-0.052185	-0.043488	-0.26413	-0.020752	0.14191	0.31067	-0.008087	-0.002136	0.04364	-0.23468	-0.37247	-0.016327	-0.11536	0.033875	-0.35217	-0.067902	0.002747	-0.00824	-0.78568	-0.008087	0.059662	0.11612	-0.003357	-0.00946
28.417	-0.063934	0.2095	0.091858	-0.012512	-0.099792	-0.13825	0.1149	0.014191	-0.11505	-0.035706	-0.25467	-0.019836	0.17166	0.30899	-0.22217	-0.008392	0.053711	-0.22888	-0.1648	0.17975	0.057983	-0.037231	-0.33539	-0.062866	0.002441	-0.003815	-0.40192	-0.004425	0.054932	-0.01709	0.004578	-0.003815
28.418	-0.052795	0.17807	0.08255	-0.00412	-0.15045	-0.08606	0.14252	0.027313	-0.079346	-0.014343	-0.24658	-0.009918	0.10376	0.23209	-0.40527	-0.000305	0.005951	-0.28397	0.42084	0.18631	0.1831	-0.025787	-0.37796	0.00351	-0.003357	0.000153	-0.094299	-0.011444	0.022736	-0.16022	-0.000305	-0.019226
28.419	-0.013428	0.168	0.026855	0.038757	-0.053406	-0.14664	0.059052	0.010223	-0.18509	0.027008	-0.15579	-0.015869	-0.12314	0.1889	-0.52673	-0.006866	-0.025787	-0.31662	0.62241	0.0914	0.066833	-0.11704	-0.34866	-0.021057	0.001831	0.003204	0.32547	-0.005035	-0.075531	-0.14313	0.000763	-0.010529
28.42	0.024414	0.19058	-0.005646	0.018311	0.02655	0.032196	0.031281	-0.00473	-0.27817	0.033569	-0.12222	-0.021362	-0.17731	0.077972	-0.34637	-0.002899	-0.025787	-0.28809	0.39917	0.057373	-0.026398	-0.30472	-0.33295	-0.093536	0.005035	0.000153	0.26215	-0.003815	-0.1889	-0.054779	-0.002136	-0.018768
28.421	0.04837	0.11444	-0.040741	0.00824	0.13275	0.14297	0.010681	0.010223	-0.2684	0.009003	-0.076752	-0.005188	0.448	0.12131	0.082092	0.019836	-0.023956	-0.36438	0.30533	0.010681	-0.18753	-0.16159	-0.33478	-0.1059	-0.006561	0.00061	-0.20721	-0.006104	-0.041656	-0.039673	-0.001678	-0.01709
28.422	0.037994	0.13947	-0.070801	-0.004883	0.25101	0.098877	-0.046539	0.01236	0.040283	-0.023804	-0.088043	-0.012817	0.35355	0.080719	0.24597	-0.007019	-0.025787	-0.33188	0.41794	-0.029449	0.07309	-0.046082	-0.33218	-0.043182	-0.026703	0.019226	-0.42557	-0.006104	0.11307	-0.12833	-0.00061	-0.009155
28.423	0.021973	0.15396	-0.11215	-0.024872	0.20889	-0.30701	-0.098114	0.011139	0.081024	-0.016174	0.013733	0.005646	-0.10468	0.014496	0.14404	0.005493	-0.022583	-0.43747	0.39352	0.015717	0.1268	0.002747	-0.32257	-0.030518	-0.012054	0.022736	-0.54581	-0.008392	0.13458	0.00885	-0.001373	-0.014496
28.424	0.00946	0.18204	-0.075073	-0.01358	0.12665	-0.76355	-0.079803	-0.003357	0.051727	0.020142	0.062103	0.003204	-0.28671	-0.010529	0.092163	-0.003662	0.001678	-0.36835	0.16342	0.03891	0.12207	0.01358	-0.35492	0.052338	-0.007477	0.010986	-0.50644	-0.004425	0.11429	0.18204	-0.001984	-0.016327
28.425	0.007935	0.22156	-0.040436	-0.001068	0.047913	-0.4921	-0.05661	0.003357	-0.094604	0.02594	0.053101	0.003967	-0.048981	0.009155	0.084534	0.005035	0.003357	-0.36606	0.10162	0.037689	0.22888	-0.061035	-0.34729	0.096436	-0.006714	-0.010376	-0.19043	-0.008698	-0.012817	0.18188	0.002136	-0.020752
28.426	-0.008392	0.23529	0.088348	0.029602	0.036621	-0.19333	-0.048828	0.011597	-0.15533	0.00885	-0.016479	0.016632	0.21072	0.026855	0.09552	0.011444	0.047455	-0.34241	0.33539	-0.068207	0.18356	-0.091248	-0.33493	0.040741	-0.015259	-0.013123	-0.021973	-0.005341	0.083313	0.16876	0.001221	-0.01358
28.427	-0.011902	0.27802	0.2034	0.036469	0.098114	-0.075836	-0.12222	0.022583	-0.17212	-0.006409	-0.024872	0.027313	0.29282	0.019073	0.092773	0.009918	0.075989	-0.4071	0.30228	-0.046082	0.05188	-0.060577	-0.35111	-0.017853	-0.002899	0.003052	0.004883	-0.002289	0.21912	0.11978	-0.001678	-0.015259
28.428	-0.012512	0.25711	0.15762	0.019226	0.047302	0.007629	-0.12817	0.01709	-0.30121	-0.017395	-0.001373	0.030212	0.11231	0.029907	0.057678	0.007477	0.065308	-0.37979	0.15198	0.048218	-0.08667	-0.097809	-0.34698	-0.022583	-0.029907	0.004425	0.11322	-0.003204	0.13458	0.10071	-0.005493	-0.014954
28.429	-0.028992	0.20783	0.13901	-0.002747	-0.062256	-0.031433	-0.003662	0.005493	-0.41351	0.012512	0.008087	0.021667	-0.28168	-0.003967	-0.027313	0.00351	-0.010681	-0.28778	0.099792	-0.079041	-0.083466	-0.097809	-0.38147	0.063782	-0.012054	0.00946	0.094757	-0.005341	0.11169	0.1564	-0.001373	-0.014954
28.43	-0.052338	0.11856	0.071106	-0.005798	-0.19623	-0.003815	0.069427	0.00885	-0.54016	0.04303	0.019836	0.02594	-0.23987	-0.045776	-0.080109	-0.000153	-0.020752	-0.24323	0.01358	-0.16495	0.002136	-0.086365	-0.38788	0.038147	-0.007172	0.005341	0.14435	-0.003662	0.17639	0.14923	0.001678	-0.016785
